<?xml version="1.0" encoding="utf-8"?>
<!-- Generator: Adobe Illustrator 26.3.1, SVG Export Plug-In . SVG Version: 6.00 Build 0)  -->
<svg version="1.1" id="Layer_1" xmlns="http://www.w3.org/2000/svg" xmlns:xlink="http://www.w3.org/1999/xlink" x="0px" y="0px"
	 viewBox="0 0 809.6 316.4" style="enable-background:new 0 0 809.6 316.4;" xml:space="preserve">
<style type="text/css">
	.st0{fill:#4A1639;}
</style>
<g>
	<g>
		<path class="st0" d="M0,3.5h30l34.7,86.3L99.2,3.5h30L77.1,130.9H52.3L0,3.5z"/>
		<path class="st0" d="M131.9,15.5c0-8.8,7.1-15.5,15.5-15.5c8.6,0,15.5,6.8,15.5,15.5c0,8.6-6.9,15.4-15.5,15.4
			C139.1,30.9,131.9,24.1,131.9,15.5z M134,38.7h27.2v59.8c0,6.6,1.5,9.7,6.2,9.7c1.1,0,2.9-0.2,3.3-0.4V131
			c-0.9,0.4-5.1,1.5-12.6,1.5c-14.6,0-24.1-6.9-24.1-26V38.7z"/>
		<path class="st0" d="M225.3,35.8c13.7,0,26.7,4.4,38.4,17.2l-17.2,17c-5.7-6-11.7-9.5-21.2-9.5c-13.2,0-23.6,10.1-23.6,24.1
			c0,13.9,10.4,23.9,23.6,23.9c9.5,0,15.5-3.5,21.2-9.5l17.2,17c-11.7,12.8-24.7,17.2-38.4,17.2c-28.1,0-50.8-20.5-50.8-48.6
			C174.5,56.5,197.2,35.8,225.3,35.8z"/>
		<path class="st0" d="M278.5,63.4h-12.1V38.7h12.1V3.5H305v35.3h20.5v24.7H305v32.9c0,9,3.7,12.2,11.7,12.2c2,0,4.6-0.4,6.9-0.7
			V132c-3.1,0.7-8.2,1.3-13.3,1.3c-13.5,0-31.8-4-31.8-32.9V63.4z"/>
		<path class="st0" d="M379.9,36c28.3,0,51.2,21.6,51.2,48.8c0,27.2-22.8,48.8-51.2,48.8c-28.5,0-51.2-21.6-51.2-48.8
			C328.8,57.6,351.4,36,379.9,36z M379.9,108.9c13.3,0,23.9-10.6,23.9-24.1c0-13.3-10.6-24.1-23.9-24.1c-13.5,0-23.9,10.8-23.9,24.1
			C356,98.3,366.4,108.9,379.9,108.9z"/>
		<path class="st0" d="M440.8,38.7H468v12.6c4.2-9.3,14.1-14.6,26.7-14.6c2.6,0,5.7,0.4,7.1,0.5v25.6c-2.6-0.5-5.7-0.9-9.1-0.9
			c-15.5,0-24.7,9-24.7,23.9v45h-27.2V38.7z"/>
		<path class="st0" d="M509,15.5C509,6.8,516.1,0,524.5,0c8.6,0,15.5,6.8,15.5,15.5c0,8.6-6.9,15.4-15.5,15.4
			C516.1,30.9,509,24.1,509,15.5z M511,38.7h27.2v59.8c0,6.6,1.5,9.7,6.2,9.7c1.1,0,2.9-0.2,3.3-0.4V131c-0.9,0.4-5.1,1.5-12.6,1.5
			c-14.6,0-24.1-6.9-24.1-26V38.7z"/>
		<path class="st0" d="M596,37.1c14.1,0,24.9,5.7,27.4,13.7V38.7h27.2v59.8c0,7.5,2,10.2,6.8,10.2c1.3,0,3.3-0.2,4.6-0.4V131
			c-2.7,0.9-7.9,1.5-12.2,1.5c-4.9,0-10.4-0.7-15-3.3c-2.9-1.8-6.6-4.8-8.2-9.9c-5.3,7.9-14.4,13.3-30.5,13.3
			c-26.1,0-45.7-21-45.7-47.9C550.3,58.3,569.8,37.1,596,37.1z M600.9,107.8c13.3,0,24.1-10.1,24.1-23c0-13-10.8-23-24.1-23
			c-13.2,0-23.4,10.1-23.4,23C577.5,97.8,587.7,107.8,600.9,107.8z"/>
		<path class="st0" d="M25.7,186.3h53.7c19.4,0,42.9,15.2,42.9,43.1c0,25.8-21.9,43.1-42.9,43.1H53.9v41.1H25.7V186.3z M77.8,247
			c5.7,0,16.4-3.7,16.4-17.5c0-14.1-10.8-17.5-16.4-17.5H53.9V247H77.8z"/>
		<path class="st0" d="M130.8,186.3H158v93.2c0,8.4,3.1,11.9,10.6,11.9c2,0,4.6-0.2,6.6-0.7v24.1c-2.7,0.7-8,1.3-13,1.3
			c-13,0-31.4-4-31.4-32.3V186.3z"/>
		<path class="st0" d="M180.7,221.6h27.2v52.6c0,10.6,5.5,17.4,15.9,17.4c9.9,0,17-7.5,17-18.3v-51.7H268v59.8
			c0,7.5,2,10.2,6.8,10.2c1.3,0,3.3-0.2,4.6-0.4v22.7c-2.7,0.9-7.9,1.5-12.2,1.5c-4.9,0-10.4-0.7-15-3.3c-2.9-1.8-6.6-4.8-8.2-9.9
			c-4,7.9-12.8,13.5-27,13.5c-23.2,0-36.2-14.4-36.2-38.2V221.6z"/>
		<path class="st0" d="M286.9,221.6h27.2v11.5c3.5-8,12.6-13.5,23.9-13.5c12.6,0,20.8,5.1,25,14.6c6-11.5,17.5-14.6,30.3-14.6
			c20.8,0,32.3,14.4,32.3,38.2V281c0,6.8,1.1,9.7,6,9.7c1.1,0,2.4-0.2,2.7-0.2v23c-0.5,0.2-4.6,1.3-11.7,1.3
			c-14.4,0-24.3-6.9-24.3-26.3V261c0-10.6-4.6-17.4-13.3-17.4s-15,7.5-15,18.3v51.7H343V261c0-10.6-4.8-17.4-13.7-17.4
			c-8.8,0-15.2,7.5-15.2,18.3v51.7h-27.2V221.6z"/>
		<path class="st0" d="M521.4,218.6c13.7,0,26.7,4.4,38.4,17.2l-17.2,17c-5.7-6-11.7-9.5-21.2-9.5c-13.2,0-23.6,10.1-23.6,24.1
			c0,13.9,10.4,23.9,23.6,23.9c9.5,0,15.5-3.5,21.2-9.5l17.2,17c-11.7,12.8-24.7,17.2-38.4,17.2c-28.1,0-50.8-20.5-50.8-48.6
			C470.6,239.3,493.3,218.6,521.4,218.6z"/>
		<path class="st0" d="M611,218.8c28.3,0,51.2,21.6,51.2,48.8c0,27.2-22.8,48.8-51.2,48.8c-28.5,0-51.2-21.6-51.2-48.8
			C559.8,240.4,582.4,218.8,611,218.8z M611,291.7c13.3,0,23.9-10.6,23.9-24.1c0-13.3-10.6-24.1-23.9-24.1
			c-13.5,0-23.9,10.8-23.9,24.1C587,281.1,597.4,291.7,611,291.7z"/>
		<path class="st0" d="M670,221.6h27.2v11.5c3.5-8,12.6-13.5,23.9-13.5c12.6,0,20.8,5.1,25,14.6c6-11.5,17.7-14.6,30.7-14.6
			c21,0,32.7,14.4,32.7,38.2v55.9h-27.2V261c0-10.6-4.8-17.4-13.7-17.4s-15.4,7.5-15.4,18.3v51.7h-27.2V261
			c0-10.6-4.8-17.4-13.7-17.4c-8.8,0-15.2,7.5-15.2,18.3v51.7H670V221.6z"/>
		<polygon class="st0" points="471.5,290.5 456.4,277.7 441.2,290.5 441.2,313.5 471.5,313.5 		"/>
	</g>
</g>
</svg>
